<svg width="56" height="56" viewBox="0 0 56 56" fill="none" xmlns="http://www.w3.org/2000/svg">
<path d="M51.6646 0.532227H4.69034C2.53791 0.532227 0.789062 2.30553 0.789062 4.48242V51.3711C0.789062 53.548 2.53791 55.3213 4.69034 55.3213H51.6646C53.817 55.3213 55.5781 53.548 55.5781 51.3711V4.48242C55.5781 2.30553 53.817 0.532227 51.6646 0.532227ZM17.3481 47.4943H9.22756V21.3472H17.3603V47.4943H17.3481ZM13.2878 17.7761C10.6829 17.7761 8.57938 15.6604 8.57938 13.0677C8.57938 10.475 10.6829 8.35924 13.2878 8.35924C15.8805 8.35924 17.9963 10.475 17.9963 13.0677C17.9963 15.6726 15.8927 17.7761 13.2878 17.7761ZM47.7878 47.4943H39.6673V34.7754C39.6673 31.7424 39.6061 27.8412 35.448 27.8412C31.2166 27.8412 30.5684 31.1432 30.5684 34.5553V47.4943H22.4479V21.3472H30.2382V24.9182H30.3482C31.4367 22.8637 34.0905 20.699 38.0407 20.699C46.2591 20.699 47.7878 26.1168 47.7878 33.1611V47.4943Z" fill="#007BB5"/>
</svg>
