<svg width="56" height="56" viewBox="0 0 56 56" fill="none" xmlns="http://www.w3.org/2000/svg">
<path d="M27.9727 0.532227C12.8672 0.532227 0.578125 12.8213 0.578125 27.9268C0.578125 43.0322 12.8672 55.3213 27.9727 55.3213C43.0781 55.3213 55.3672 43.0322 55.3672 27.9268C55.3672 12.8213 43.0781 0.532227 27.9727 0.532227ZM46.0851 13.1653C49.344 17.147 51.3175 22.2184 51.369 27.7413C50.5976 27.5781 42.8615 26.009 35.0757 26.9882C34.4403 25.4372 33.8406 24.0727 33.0192 22.3914C41.6707 18.8592 45.5918 13.8326 46.0851 13.1653ZM43.4838 10.4594C43.063 11.0589 39.5407 15.7932 31.2202 18.9119C27.3859 11.867 23.1361 6.07973 22.4893 5.21371C29.9097 3.425 37.7293 5.354 43.4838 10.4594ZM18.0246 6.78657C18.6415 7.6326 22.8228 13.4271 26.6999 20.3191C15.7546 23.2257 6.11425 23.1839 5.06774 23.1701C6.58504 15.9091 11.4783 9.87431 18.0246 6.78657ZM4.57353 27.9624C4.57353 27.7232 4.57828 27.485 4.58546 27.2474C5.60922 27.2684 16.9483 27.4145 28.6337 23.9174C29.3035 25.2284 29.9434 26.5591 30.5307 27.8884C22.0695 30.2716 14.3819 37.115 10.5889 43.6078C6.85169 39.4595 4.57353 33.9723 4.57353 27.9624ZM13.6101 46.422C16.0543 41.4255 22.6876 34.9758 32.1212 31.7576C35.4063 40.2944 36.7649 47.449 37.1128 49.5019C29.589 52.7068 20.5419 51.8275 13.6101 46.422ZM41.0466 47.3597C40.8068 45.9363 39.5613 39.0865 36.5009 30.6764C43.8333 29.5026 50.2754 31.424 51.076 31.6766C50.033 38.1873 46.296 43.8102 41.0466 47.3597Z" fill="#B2215A"/>
</svg>
