<svg width="56" height="56" viewBox="0 0 56 56" fill="none" xmlns="http://www.w3.org/2000/svg">
<path d="M55.1562 27.9268C55.1562 43.06 42.895 55.3213 27.7617 55.3213C24.9339 55.3213 22.2165 54.8905 19.6538 54.0952C20.7695 52.2725 22.4375 49.2901 23.056 46.9151C23.3874 45.6338 24.7572 40.3979 24.7572 40.3979C25.6519 42.099 28.2588 43.5461 31.0314 43.5461C39.2939 43.5461 45.2478 35.9463 45.2478 26.5018C45.2478 17.455 37.8579 10.6837 28.3582 10.6837C16.5388 10.6837 10.2535 18.6148 10.2535 27.264C10.2535 31.2848 12.3965 36.2887 15.8097 37.8794C16.3289 38.1224 16.6051 38.0119 16.7266 37.5148C16.815 37.1393 17.2789 35.2725 17.4888 34.4109C17.555 34.1347 17.5219 33.8917 17.301 33.6266C16.1853 32.2458 15.2795 29.7273 15.2795 27.3744C15.2795 21.3322 19.8527 15.4888 27.6513 15.4888C34.3784 15.4888 39.0951 20.0729 39.0951 26.6344C39.0951 34.0463 35.3504 39.1828 30.4791 39.1828C27.7949 39.1828 25.7734 36.9625 26.4251 34.2341C27.1984 30.9755 28.6896 27.4628 28.6896 25.11C28.6896 23.0112 27.5629 21.2549 25.2211 21.2549C22.4706 21.2549 20.2614 24.0937 20.2614 27.9047C20.2614 30.3348 21.0788 31.9697 21.0788 31.9697C21.0788 31.9697 18.3725 43.4356 17.8754 45.5786C17.3231 47.9424 17.544 51.2784 17.776 53.4434C7.59139 49.4558 0.367188 39.5363 0.367188 27.9268C0.367188 12.7935 12.6284 0.532227 27.7617 0.532227C42.895 0.532227 55.1562 12.7935 55.1562 27.9268Z" fill="#BD081C"/>
</svg>
