<svg xmlns="http://www.w3.org/2000/svg" width="64" height="64" viewBox="0 0 64 64" fill="none">
<path d="M28.7896 44.0002L19.3896 34.6002C19.3896 34.6002 31.7596 5.41018 56.7696 7.00018C56.7696 7.00018 60.2496 30.1202 28.7896 44.0002Z" stroke="#FE572E" stroke-width="3"/>
<path d="M55.9996 16.8198C53.7237 16.4553 51.6225 15.3767 49.9996 13.7398C48.331 12.0759 47.2408 9.92005 46.8896 7.58984" stroke="#FE572E" stroke-width="3"/>
<path d="M42.3198 26.92C45.3464 26.92 47.7998 24.4665 47.7998 21.44C47.7998 18.4134 45.3464 15.96 42.3198 15.96C39.2933 15.96 36.8398 18.4134 36.8398 21.44C36.8398 24.4665 39.2933 26.92 42.3198 26.92Z" stroke="#FE572E" stroke-width="3"/>
<path d="M21.4904 36.6798C14.9404 38.7798 14.6104 49.1498 14.6104 49.1498C14.6104 49.1498 24.6904 49.2598 27.2004 42.3898M30.6104 43.1598L30.0004 47.8398C29.9954 47.8814 30.0015 47.9235 30.0179 47.962C30.0342 48.0005 30.0604 48.034 30.0938 48.0593C30.1271 48.0846 30.1665 48.1007 30.208 48.106C30.2495 48.1114 30.2917 48.1058 30.3304 48.0898L38.3304 44.6198C38.658 44.4694 38.9461 44.2446 39.1718 43.9634C39.3974 43.6822 39.5544 43.3523 39.6304 42.9998L40.8503 37.1698L30.6104 43.1598ZM20.0004 33.2898L15.3104 33.8898C15.27 33.895 15.2291 33.8893 15.1916 33.8735C15.1542 33.8577 15.1216 33.8322 15.0972 33.7997C15.0728 33.7671 15.0575 33.7287 15.0528 33.6884C15.0481 33.648 15.0541 33.6071 15.0704 33.5698L18.5304 25.6198C18.68 25.2773 18.9099 24.9759 19.2006 24.7409C19.4912 24.506 19.8341 24.3444 20.2004 24.2698L26.0204 23.0498L20.0004 33.2898Z" stroke="#FE572E" stroke-width="3"/>
<path d="M10.8801 52.8198L7.12012 56.5898" stroke="#FE572E" stroke-width="3" stroke-linecap="round"/>
<path d="M10.6002 45.6299L7.41016 48.8099" stroke="#FE572E" stroke-width="3" stroke-linecap="round"/>
<path d="M17.9398 53.1099L14.7598 56.2999" stroke="#FE572E" stroke-width="3" stroke-linecap="round"/>
</svg>