<svg xmlns="http://www.w3.org/2000/svg" width="64" height="64" viewBox="0 0 64 64" fill="none">
<path d="M31.9996 51.6302C43.2442 51.6302 52.3596 42.5147 52.3596 31.2702C52.3596 20.0256 43.2442 10.9102 31.9996 10.9102C20.7551 10.9102 11.6396 20.0256 11.6396 31.2702C11.6396 42.5147 20.7551 51.6302 31.9996 51.6302Z" stroke="#FE572E" stroke-width="3"/>
<path d="M31.3604 16.5801V31.9901L38.7603 37.6601" stroke="#FE572E" stroke-width="3" stroke-linecap="round"/>
<path d="M13.6396 53.4298L18.2496 46.2998" stroke="#FE572E" stroke-width="3" stroke-linecap="round"/>
<path d="M45.8398 46.2998L50.4498 53.4298" stroke="#FE572E" stroke-width="3" stroke-linecap="round"/>
<path d="M9.15041 19.3998C7.97759 18.1955 7.32129 16.5809 7.32129 14.8998C7.32129 13.2188 7.97759 11.6042 9.15041 10.3998C9.72011 9.81134 10.4023 9.34339 11.1565 9.02382C11.9106 8.70424 12.7213 8.53955 13.5404 8.53955C14.3595 8.53955 15.1702 8.70424 15.9244 9.02382C16.6785 9.34339 17.3607 9.81134 17.9304 10.3998L9.15041 19.3998ZM54.8704 19.3998C56.0432 18.1955 56.6995 16.5809 56.6995 14.8998C56.6995 13.2188 56.0432 11.6042 54.8704 10.3998C54.3007 9.81134 53.6185 9.34339 52.8644 9.02382C52.1102 8.70424 51.2995 8.53955 50.4804 8.53955C49.6613 8.53955 48.8506 8.70424 48.0965 9.02382C47.3423 9.34339 46.6601 9.81134 46.0904 10.3998L54.8704 19.3998Z" stroke="#FE572E" stroke-width="3"/>
</svg>