<svg xmlns="http://www.w3.org/2000/svg" width="64" height="64" viewBox="0 0 64 64" fill="none">
<path d="M33.5196 60.32C44.7973 60.32 53.9396 51.1776 53.9396 39.9C53.9396 28.6223 44.7973 19.48 33.5196 19.48C22.242 19.48 13.0996 28.6223 13.0996 39.9C13.0996 51.1776 22.242 60.32 33.5196 60.32Z" stroke="#FE572E" stroke-width="3" stroke-linecap="round"/>
<path d="M33.6503 27.9102L37.2903 35.2902C37.2991 35.3097 37.3131 35.3265 37.3307 35.3389C37.3483 35.3512 37.3689 35.3585 37.3903 35.3602L45.5403 36.5502C45.5659 36.5526 45.5902 36.5626 45.6102 36.5789C45.6301 36.5953 45.6448 36.6171 45.6523 36.6418C45.6598 36.6664 45.6598 36.6927 45.6523 36.7174C45.6448 36.742 45.6302 36.7639 45.6103 36.7802L39.7203 42.5202C39.7086 42.538 39.7025 42.5589 39.7025 42.5802C39.7025 42.6015 39.7086 42.6223 39.7203 42.6402L41.1103 50.7602C41.1127 50.7849 41.1085 50.8099 41.0982 50.8325C41.0878 50.855 41.0716 50.8745 41.0512 50.8887C41.0309 50.903 41.0071 50.9116 40.9823 50.9136C40.9575 50.9156 40.9327 50.911 40.9103 50.9002L33.6303 47.0702C33.61 47.0604 33.5878 47.0554 33.5653 47.0554C33.5428 47.0554 33.5205 47.0604 33.5003 47.0702L26.1803 50.9002C26.1579 50.911 26.133 50.9156 26.1082 50.9136C26.0834 50.9116 26.0597 50.903 26.0393 50.8887C26.0189 50.8745 26.0027 50.855 25.9924 50.8325C25.982 50.8099 25.9778 50.7849 25.9803 50.7602L27.3703 42.6402C27.3792 42.6214 27.3838 42.6009 27.3838 42.5802C27.3838 42.5594 27.3792 42.5389 27.3703 42.5202L21.4803 36.7802C21.4603 36.7639 21.4457 36.742 21.4382 36.7174C21.4307 36.6927 21.4307 36.6664 21.4382 36.6418C21.4457 36.6171 21.4604 36.5953 21.4803 36.5789C21.5003 36.5626 21.5246 36.5526 21.5503 36.5502L29.7003 35.3602C29.7217 35.3585 29.7422 35.3512 29.7598 35.3389C29.7774 35.3265 29.7914 35.3097 29.8003 35.2902L33.4403 27.9102C33.4534 27.8953 33.4696 27.8834 33.4877 27.8752C33.5058 27.867 33.5254 27.8628 33.5453 27.8628C33.5651 27.8628 33.5848 27.867 33.6029 27.8752C33.621 27.8834 33.6371 27.8953 33.6503 27.9102V27.9102Z" stroke="#FE572E" stroke-width="3" stroke-linecap="round"/>
<path d="M21.4796 23.7499L9.88965 3.66992H19.9696L29.0396 19.3799L19.9696 3.66992" stroke="#FE572E" stroke-width="3"/>
<path d="M44.8195 22.8899L55.9195 3.66992H45.7895L36.7695 19.3799" stroke="#FE572E" stroke-width="3" stroke-linecap="round"/>
</svg>