<svg width="74" height="30" viewBox="0 0 74 30" fill="none" xmlns="http://www.w3.org/2000/svg">
<path d="M45.6952 0.729853C45.6952 2.21797 45.9327 4.46327 42.4197 5.73553C41.3325 6.12955 40.5981 6.83877 40.5981 6.83877C40.5981 3.29836 41.1372 2.01696 42.5853 1.25863C43.6988 0.675034 45.6952 0.729853 45.6952 0.729853ZM32.47 4.78876L28.5596 19.9394L25.307 7.54C24.4288 3.88653 22.9304 1.99755 19.776 1.99755C16.6501 1.99755 15.1323 3.84541 14.2449 7.54L10.9923 19.9394L7.0819 4.78876C6.44805 1.73715 3.49353 0.418069 0.768555 0.760689L8.25709 29.076C8.25709 29.076 10.7274 29.2541 11.9642 28.6237C13.5883 27.7957 14.3603 27.1573 15.3436 23.3051C16.2196 19.8709 18.6682 9.78187 18.8977 9.06351C19.4413 7.35727 20.1643 7.48632 20.6565 9.06351C20.8815 9.78302 23.3347 19.8709 24.2106 23.3051C25.1928 27.1573 25.966 27.7957 27.59 28.6237C28.8257 29.2541 31.2971 29.076 31.2971 29.076L38.7857 0.760689C35.9967 0.410075 33.0959 1.78055 32.47 4.78876ZM45.6929 5.38377C45.6929 5.38377 45.2246 6.10784 44.1557 6.70515C43.4693 7.08888 42.8103 7.34927 42.1034 7.68846C40.3743 8.51761 40.5981 9.28165 40.5981 11.7085V29.076C40.5981 29.076 42.4883 29.3146 43.724 28.6842C45.3149 27.8734 45.6803 27.091 45.6952 23.57V6.40821L45.6929 5.38377ZM64.3588 14.9863L73.8608 0.854338C73.8608 0.854338 69.851 0.171382 67.865 1.97927C66.346 3.36118 65.0772 5.35408 61.6773 10.2558C61.6236 10.3392 60.9635 11.4596 60.1846 10.2558C56.8395 5.43288 55.5249 3.37031 53.9969 1.97927C52.0108 0.171382 48.001 0.854338 48.001 0.854338L57.503 14.9863L48.0273 29.0748C48.0273 29.0748 52.2038 29.6024 54.1887 27.7946C55.501 26.6 56.1965 25.4682 60.1857 19.7179C60.9635 18.5164 61.6213 19.6299 61.6784 19.7179C65.0361 24.5579 66.1587 26.3487 67.7473 27.7946C69.7334 29.6024 73.8368 29.0748 73.8368 29.0748L64.3588 14.9863Z" fill="#333438"/>
</svg>
